# xmcd
#
# Track frame offsets:
#	150
#	11549
#	23412
#	35710
#	50158
#	63767
#	77094
#	87404
#	99849
#	113491
#	124769
#
# Disc length: 1827 seconds
#
# Revision: 1
# Processed by: cddbd v1.5.2PL0 Copyright (c) Steve Scherf et al.
# Submitted via: audiograbber 1.83.01
#
DISCID=7c07210b
DTITLE=George Jones - A Picture Of Me
DYEAR=1972
DGENRE=Country
TTITLE0=A Picture Of Me (Without You)
TTITLE1=The MAn Worth Lovin' You
TTITLE2=She Knows What She Is Crying About
TTITLE3=Second Handed Flowers
TTITLE4=That Singing Friend Of Mine
TTITLE5=She Loves Me (Right Out Of My Mind)
TTITLE6=Tomorrow Never Comes
TTITLE7=Another Way To Say Goodbye
TTITLE8=On The Back Row
TTITLE9=Let There Be Woman
TTITLE10=We found A Match
EXTD=
EXTT0=
EXTT1=
EXTT2=
EXTT3=
EXTT4=
EXTT5=
EXTT6=
EXTT7=
EXTT8=
EXTT9=
EXTT10=
PLAYORDER=
